PathFileType	4	(X/Y/Z)	RBDS016static.trc
DataRate	CameraRate	NumFrames	NumMarkers	Units	OrigDataRate	OrigDataStartFrame	OrigNumFrames
150.000000	150.000000	4	48	mm	150.000000	0	150
Frame#	Time	L.Ankle			L.Ankle.Medial			L.ASIS			L.GTR			L.Heel.Bottom			L.Heel.Lateral			L.Heel.Top			L.HF			L.Iliac.Crest			L.Knee			L.Knee.Medial			L.MT1			L.MT2			L.MT5			L.PSIS			L.Shank.Bottom.Lateral			L.Shank.Bottom.Medial			L.Shank.Top.Lateral			L.Shank.Top.Medial			L.Thigh.Bottom.Lateral			L.Thigh.Bottom.Medial			L.Thigh.Top.Lateral			L.Thigh.Top.Medial			L.TT			R.Ankle			R.Ankle.Medial			R.ASIS			R.GTR			R.Heel.Bottom			R.Heel.Lateral			R.Heel.Top			R.HF			R.Iliac.Crest			R.Knee			R.Knee.Medial			R.MT1			R.MT2			R.MT5			R.PSIS			R.Shank.Bottom.Lateral			R.Shank.Bottom.Medial			R.Shank.Top.Lateral			R.Shank.Top.Medial			R.Thigh.Bottom.Lateral			R.Thigh.Bottom.Medial			R.Thigh.Top.Lateral			R.Thigh.Top.Medial			R.TT			
		X1	Y1	Z1	X2	Y2	Z2	X3	Y3	Z3	X4	Y4	Z4	X5	Y5	Z5	X6	Y6	Z6	X7	Y7	Z7	X8	Y8	Z8	X9	Y9	Z9	X10	Y10	Z10	X11	Y11	Z11	X12	Y12	Z12	X13	Y13	Z13	X14	Y14	Z14	X15	Y15	Z15	X16	Y16	Z16	X17	Y17	Z17	X18	Y18	Z18	X19	Y19	Z19	X20	Y20	Z20	X21	Y21	Z21	X22	Y22	Z22	X23	Y23	Z23	X24	Y24	Z24	X25	Y25	Z25	X26	Y26	Z26	X27	Y27	Z27	X28	Y28	Z28	X29	Y29	Z29	X30	Y30	Z30	X31	Y31	Z31	X32	Y32	Z32	X33	Y33	Z33	X34	Y34	Z34	X35	Y35	Z35	X36	Y36	Z36	X37	Y37	Z37	X38	Y38	Z38	X39	Y39	Z39	X40	Y40	Z40	X41	Y41	Z41	X42	Y42	Z42	X43	Y43	Z43	X44	Y44	Z44	X45	Y45	Z45	X46	Y46	Z46	X47	Y47	Z47	X48	Y48	Z48	

1	0	722.8306274414063	98.32534027099609	1045.038696289063	732.2260131835938	111.1908416748047	1131.9404296875	862.6533203125	945.86669921875	1122.414794921875	786.43359375	881.963134765625	1050.875366210938	645.0206298828125	40.48388290405273	1088.094116210938	669.0806274414063	62.30893325805664	1047.225708007813	654.4019775390625	88.08851623535156	1088.926635742188	756.629638671875	444.3109741210938	1025.573486328125	777.0886840820313	1007.924133300781	1061.1796875	760.9242553710938	503.3896789550781	1030.528564453125	733.5253295898438	481.4275207519531	1161.767944335938	861.218017578125	60.55378341674805	1127.370727539063	865.60107421875	70.29315948486328	1088.987915039063	828.1117553710938	52.83934783935547	1021.743103027344	665.781982421875	966.5651245117188	1179.25	703.2598266601563	175.0625915527344	1038.98974609375	675.1685180664063	179.1327972412109	1086.821533203125	696.6387329101563	254.8906402587891	1028.937744140625	670.8322143554688	259.4897155761719	1076.369262695313	749.8387451171875	586.4634399414063	1026.944091796875	687.5261840820313	592.8728637695313	1065.107421875	759.25732421875	696.0352783203125	1025.890991210938	700.5009765625	701.7526245117188	1063.856567382813	804.2954711914063	427.0848083496094	1089.568359375	714.748046875	101.2483825683594	1410.597290039063	737.8172607421875	122.3462524414063	1325.371704101563	846.1063232421875	950.046142578125	1354.3935546875	766.656005859375	888.1394653320313	1415.3056640625	639.968994140625	41.57486724853516	1366.082641601563	668.8159790039063	65.050537109375	1406.33740234375	652.2938232421875	92.37098693847656	1363.250122070313	743.7676391601563	450.77294921875	1427.253051757813	760.8035278320313	1003.754821777344	1399.43408203125	744.3587036132813	513.6300048828125	1421.255493164063	732.865234375	485.561279296875	1292.23876953125	855.47998046875	61.26026916503906	1329.21630859375	862.625244140625	70.73403930664063	1371.669189453125	824.7744750976563	48.64012145996094	1438.88134765625	659.9219360351563	966.5338745117188	1280.886962890625	711.2974853515625	170.9220428466797	1419.329956054688	671.4031372070313	176.4819641113281	1387.3251953125	708.4313354492188	254.8208160400391	1434.475341796875	667.3757934570313	256.2646179199219	1400.363647460938	729.4599609375	598.6744384765625	1429.283081054688	674.9144287109375	599.7492065429688	1380.538452148438	726.6505126953125	709.3177490234375	1431.4482421875	676.7842407226563	709.6731567382813	1384.314208984375	793.65771484375	422.8905639648438	1373.020874023438	
2	0.006666666666666667	722.8328247070313	98.32911682128906	1045.027587890625	732.2213134765625	111.1837768554688	1131.937622070313	862.6129150390625	945.8567504882813	1122.38671875	786.3972778320313	881.960693359375	1050.868530273438	645.009765625	40.48218536376953	1088.084838867188	669.0847778320313	62.3151741027832	1047.225952148438	654.3994750976563	88.08201599121094	1088.927856445313	756.5838012695313	444.3143005371094	1025.545532226563	777.0538330078125	1007.92138671875	1061.175048828125	760.8829956054688	503.38330078125	1030.511840820313	733.4888916015625	481.4272155761719	1161.768188476563	861.2136840820313	60.55697250366211	1127.377685546875	865.5894165039063	70.29794311523438	1088.99560546875	828.112060546875	52.83464431762695	1021.749450683594	665.7470703125	966.5750732421875	1179.250366210938	703.2445068359375	175.0419006347656	1038.986328125	675.1603393554688	179.1165008544922	1086.822998046875	696.6166381835938	254.8874206542969	1028.931640625	670.8099365234375	259.4824829101563	1076.365234375	749.8169555664063	586.4549560546875	1026.924438476563	687.512939453125	592.8558959960938	1065.127075195313	759.20361328125	696.0311889648438	1025.882934570313	700.46044921875	701.7388305664063	1063.85009765625	804.265380859375	427.0859069824219	1089.569213867188	714.735595703125	101.2446594238281	1410.59814453125	737.8130493164063	122.3523941040039	1325.372924804688	846.0888671875	950.02978515625	1354.394775390625	766.633056640625	888.1212768554688	1415.30419921875	639.975830078125	41.56526184082031	1366.079711914063	668.8155517578125	65.04723358154297	1406.340698242188	652.2955932617188	92.36824798583984	1363.249755859375	743.7415161132813	450.7792663574219	1427.269775390625	760.7653198242188	1003.754089355469	1399.425170898438	744.330078125	513.62890625	1421.257080078125	732.813232421875	485.5604248046875	1292.237182617188	855.4769897460938	61.25689315795898	1329.215698242188	862.622802734375	70.74321746826172	1371.666748046875	824.7801513671875	48.6276741027832	1438.886474609375	659.9005126953125	966.541748046875	1280.889526367188	711.2789306640625	170.9277191162109	1419.339111328125	671.3941650390625	176.4798736572266	1387.335693359375	708.4204711914063	254.8152313232422	1434.470947265625	667.3619384765625	256.2590026855469	1400.36572265625	729.41943359375	598.6155395507813	1429.264404296875	674.8731689453125	599.7446899414063	1380.549682617188	726.6129150390625	709.3069458007813	1431.459350585938	676.7420654296875	709.6611328125	1384.329345703125	793.6284790039063	422.8880310058594	1373.022338867188	
3	0.01333333333333333	722.8267822265625	98.3162841796875	1045.033325195313	732.222900390625	111.1929473876953	1131.942138671875	862.5626220703125	945.8394165039063	1122.369140625	786.3229370117188	881.9564819335938	1050.856689453125	645.0086669921875	40.47308349609375	1088.086303710938	669.073974609375	62.30632400512695	1047.225952148438	654.3926391601563	88.06895446777344	1088.930419921875	756.5296020507813	444.3203125	1025.524780273438	777.0147094726563	1007.92138671875	1061.1611328125	760.833740234375	503.3692626953125	1030.508544921875	733.4672241210938	481.406982421875	1161.770263671875	861.2166748046875	60.56104278564453	1127.379638671875	865.5844116210938	70.30259704589844	1088.999389648438	828.1118774414063	52.8336067199707	1021.747314453125	665.711181640625	966.598388671875	1179.265625	703.239501953125	175.0314178466797	1038.982666015625	675.14892578125	179.1109619140625	1086.819091796875	696.5912475585938	254.8721313476563	1028.920776367188	670.791015625	259.4700317382813	1076.359619140625	749.7566528320313	586.4468383789063	1026.903564453125	687.473876953125	592.8324584960938	1065.149658203125	759.1661376953125	696.0179443359375	1025.868286132813	700.4230346679688	701.7224731445313	1063.870239257813	804.2319946289063	427.0972900390625	1089.563110351563	714.725341796875	101.246940612793	1410.595947265625	737.8486938476563	122.4510116577148	1325.503662109375	846.05322265625	950.0057983398438	1354.377685546875	766.6099243164063	888.11376953125	1415.312255859375	639.9666748046875	41.5628776550293	1366.079956054688	668.8128051757813	65.04502105712891	1406.333129882813	652.2910766601563	92.36493682861328	1363.243774414063	743.7034912109375	450.6800231933594	1426.98876953125	760.744140625	1003.736572265625	1399.423950195313	744.29443359375	513.6217651367188	1421.256469726563	732.7454223632813	485.5632934570313	1292.2353515625	855.46240234375	61.26436614990234	1329.216430664063	862.6198120117188	70.73941802978516	1371.661254882813	824.7738647460938	48.64879608154297	1438.87939453125	659.8653564453125	966.5452880859375	1280.890991210938	711.2652587890625	170.9175262451172	1419.33642578125	671.3831787109375	176.4781646728516	1387.340576171875	708.4036254882813	254.8170623779297	1434.487426757813	667.342529296875	256.2531127929688	1400.374389648438	729.3751220703125	598.6062622070313	1429.269653320313	674.8345336914063	599.7333984375	1380.538818359375	726.5567016601563	709.2935791015625	1431.4736328125	676.6939086914063	709.64990234375	1384.34228515625	793.5914306640625	422.8922119140625	1373.02880859375	
4	0.02	722.8104248046875	98.32181549072266	1045.030517578125	732.2056274414063	111.1875762939453	1131.932739257813	862.5209350585938	945.8256225585938	1122.365844726563	786.281005859375	881.9517211914063	1050.8466796875	645.004150390625	40.47044372558594	1088.084594726563	669.0707397460938	62.30468368530273	1047.228515625	654.3855590820313	88.06601715087891	1088.930419921875	756.4852294921875	444.3077697753906	1025.505249023438	776.9921264648438	1007.910705566406	1061.156860351563	760.7816162109375	503.353515625	1030.487426757813	733.4552001953125	481.3849792480469	1161.764770507813	861.2030639648438	60.56387710571289	1127.381469726563	865.589111328125	70.30831146240234	1089.003784179688	828.10693359375	52.8411750793457	1021.7509765625	665.6761474609375	966.6109619140625	1179.26904296875	703.22412109375	175.0194396972656	1038.972900390625	675.13720703125	179.0928955078125	1086.819091796875	696.5725708007813	254.8652496337891	1028.919555664063	670.7691040039063	259.4435424804688	1076.35986328125	749.7183837890625	586.4325561523438	1026.86669921875	687.4405517578125	592.8102416992188	1065.175048828125	759.11279296875	696.0016479492188	1025.86181640625	700.3739624023438	701.6948852539063	1063.8837890625	804.2098388671875	427.0934143066406	1089.522216796875	714.7244262695313	101.2659683227539	1410.59814453125	737.8358154296875	122.4550170898438	1325.502319335938	846.0326538085938	949.9784545898438	1354.3642578125	766.57275390625	888.1091918945313	1415.343627929688	639.9638061523438	41.56059646606445	1366.083129882813	668.8157348632813	65.03540802001953	1406.336059570313	652.2813110351563	92.36159515380859	1363.262939453125	743.6893310546875	450.7615356445313	1427.265014648438	760.7359619140625	1003.734069824219	1399.424560546875	744.267578125	513.60888671875	1421.260498046875	732.712890625	485.5387268066406	1292.236450195313	855.4688110351563	61.27439117431641	1329.220336914063	862.6110229492188	70.74874114990234	1371.65966796875	824.7744140625	48.64675903320313	1438.897338867188	659.8314819335938	966.5615234375	1280.893432617188	711.2586669921875	170.9216613769531	1419.3447265625	671.3743286132813	176.463623046875	1387.348266601563	708.384033203125	254.8146362304688	1434.484741210938	667.321533203125	256.2501831054688	1400.371215820313	729.3362426757813	598.596923828125	1429.275146484375	674.790283203125	599.7239990234375	1380.550659179688	726.5169067382813	709.2823486328125	1431.480346679688	676.6363525390625	709.644287109375	1384.348022460938	793.5732421875	422.8849487304688	1373.006958007813	
